<svg width="14" height="20" viewBox="0 0 14 20" fill="none" xmlns="http://www.w3.org/2000/svg">
<path d="M13.1165 16.901H9.48203" stroke="#292D32" stroke-width="1.5" stroke-linecap="round" stroke-linejoin="round"/>
<path d="M11.2993 18.7183V15.0837" stroke="#292D32" stroke-width="1.5" stroke-linecap="round" stroke-linejoin="round"/>
<path d="M7.35582 9.05954C7.26495 9.05046 7.15592 9.05046 7.05597 9.05954C4.89343 8.98685 3.17612 7.21503 3.17612 5.03432C3.16703 2.80817 4.97521 1 7.20135 1C9.42749 1 11.2357 2.80817 11.2357 5.03432C11.2357 7.21503 9.50927 8.98685 7.35582 9.05954Z" stroke="#292D32" stroke-width="1.5" stroke-linecap="round" stroke-linejoin="round"/>
<path d="M7.2014 19C5.54769 19 3.90307 18.582 2.64916 17.7461C0.450279 16.2741 0.450279 13.8753 2.64916 12.4124C5.14789 10.7405 9.24581 10.7405 11.7445 12.4124" stroke="#292D32" stroke-width="1.5" stroke-linecap="round" stroke-linejoin="round"/>
</svg>
