<svg width="21" height="17" viewBox="0 0 21 17" fill="none" xmlns="http://www.w3.org/2000/svg">
<path d="M19.4694 2.18305H13.9107L12.7882 0.297328C12.6784 0.112959 12.4797 0 12.2651 0H8.73479C8.52022 0 8.3215 0.112959 8.21175 0.297328L7.08927 2.18305H5.26519V1.76743C5.26519 1.43129 4.99266 1.15877 4.65652 1.15877H2.40439C2.06818 1.15877 1.79572 1.43129 1.79572 1.76743V2.18305H1.53058C0.685201 2.18305 0 2.86832 0 3.71356V14.7953C0 15.6406 0.685201 16.3258 1.53051 16.3258H19.4694C20.3147 16.3258 21 15.6406 21 14.7953V3.71356C21.0001 2.86832 20.3147 2.18305 19.4694 2.18305ZM10.5 13.611C8.09387 13.611 6.14337 11.6605 6.14337 9.25434C6.14337 6.84832 8.09387 4.89775 10.5 4.89775C12.9061 4.89775 14.8566 6.84832 14.8566 9.25434C14.8566 11.6605 12.9061 13.611 10.5 13.611ZM18.5145 5.33851H16.6073C16.2711 5.33851 15.9986 5.06599 15.9986 4.72978C15.9986 4.39357 16.2711 4.12104 16.6073 4.12104H18.5145C18.8508 4.12104 19.1232 4.39357 19.1232 4.72978C19.1232 5.06599 18.8507 5.33851 18.5145 5.33851Z" fill="#151414"/>
<path d="M10.5 12.2978C12.1808 12.2978 13.5435 10.9351 13.5435 9.25422C13.5435 7.57333 12.1808 6.21069 10.5 6.21069C8.81906 6.21069 7.45642 7.57333 7.45642 9.25422C7.45642 10.9351 8.81906 12.2978 10.5 12.2978Z" fill="#151414"/>
</svg>
