<svg width="24" height="24" viewBox="0 0 24 24" fill="none" xmlns="http://www.w3.org/2000/svg">
<path d="M10.2829 11.4385V3.57308C10.2829 2.70509 11.0526 2 12 2C12.9474 2 13.7171 2.70509 13.7171 3.57308V11.4385C13.7171 12.3065 12.9474 13.0116 12 13.0116C11.0526 13.0116 10.2829 12.3065 10.2829 11.4385ZM18.8063 4.30657C18.25 3.90307 17.4384 3.99162 16.998 4.50206C16.5576 5.01333 16.6533 5.75517 17.2114 6.15951C19.254 7.63568 20.4249 9.84618 20.4249 12.2254C20.4249 16.481 16.6451 19.9438 12.0009 19.9438C7.3558 19.9438 3.57606 16.481 3.57606 12.2254C3.57606 9.84702 4.746 7.63736 6.78679 6.16202C7.34486 5.75852 7.4406 5.01667 7.00017 4.50456C6.55973 3.99329 5.75089 3.90641 5.191 4.30908C2.5274 6.2347 1 9.12021 1 12.2254C1 17.7826 5.93509 22.303 12 22.303C18.0649 22.303 23 17.7818 23 12.2254C23 9.11854 21.4708 6.23303 18.8063 4.30657Z" fill="#ff7b4a"/>
</svg>
