<svg width="73" height="62" viewBox="0 0 73 62" fill="none" xmlns="http://www.w3.org/2000/svg">
<path d="M34.7619 51.6667C34.7599 47.5987 35.7975 43.5965 37.7778 40.0331C39.7581 36.4697 42.6167 33.4612 46.0871 31.2879C49.5576 29.1146 53.5268 27.8473 57.6249 27.6043C61.723 27.3612 65.8165 28.1502 69.5238 29.8978V6.88889C69.5238 3.1 66.3952 0 62.5714 0H6.95238C3.12857 0 0 3.1 0 6.88889V48.2222C0 52.0111 3.12857 55.1111 6.95238 55.1111H35.04C34.8662 53.9744 34.7619 52.8378 34.7619 51.6667ZM6.95238 6.88889L34.7619 24.1111L62.5714 6.88889V13.7778L34.7619 31L6.95238 13.7778V6.88889ZM53.3248 62L41.0191 49.8067L45.9205 44.95L53.29 52.2522L68.029 37.6478L73 42.5044L53.3248 62Z" fill="white"/>
</svg>
