<svg width="78" height="78" viewBox="0 0 78 78" fill="none" xmlns="http://www.w3.org/2000/svg">
<path d="M14.3639 11.9714L14.241 11.5754C14.0772 11.8076 13.9133 12.0533 13.7358 12.2854C13.9543 12.1899 14.1591 12.0806 14.3639 11.9714Z" fill="#CE1E12"/>
<path d="M72.161 50.1751L63.8185 44.1127L62.0161 42.802L57.9746 39.8664L57.0461 39.1973L55.1755 37.8456L53.578 42.7473L51.9259 47.8539L47.4064 61.74L46.0956 65.7815L42.1497 77.9062C45.0853 77.6741 47.9253 77.1006 50.6424 76.2541C53.182 75.4485 55.6261 74.3972 57.9063 73.1274C61.7294 70.9973 65.1565 68.2392 68.0512 64.9896C71.2462 61.4123 73.7995 57.2342 75.5199 52.6465L72.161 50.1751Z" fill="#A81385"/>
<path d="M57.2238 4.55799C55.9267 3.8753 54.6023 3.26087 53.2232 2.71471C48.813 0.98066 44.0068 0.0112305 38.9685 0.0112305C38.6954 0.0112305 38.4223 0.0112313 38.1493 0.0248852C37.2754 0.0385392 36.4152 0.0931549 35.555 0.161425C32.0186 0.475465 28.6325 1.25374 25.4238 2.44163C23.9901 2.97414 22.5974 3.58856 21.2457 4.28491C20.0032 4.92665 18.788 5.623 17.6274 6.38762C17.5591 6.44224 17.4772 6.4832 17.4089 6.53781L17.4499 6.688L17.9414 8.21725L18.3374 9.43245L20.4811 16.0273L21.6007 19.4544L24.6728 28.9166L25.178 30.4459L37.0433 21.8166L59.2309 5.69127C58.5756 5.2953 57.9065 4.91299 57.2238 4.55799Z" fill="#273869"/>
<path d="M25.4509 46.0798L23.949 41.4648L22.7475 37.7646L21.1363 32.7945L18.1324 23.5372L16.9582 19.9052L14.5005 12.3273L14.3912 11.9723C14.1864 12.0815 13.9816 12.1907 13.7632 12.2863C13.927 12.0542 14.0909 11.8084 14.2684 11.5763L13.5857 9.45996C12.0155 10.8117 10.5408 12.3 9.20275 13.8838C6.14427 17.5158 3.72752 21.6939 2.14367 26.268C1.93886 26.8687 1.73405 27.4832 1.55655 28.0976C0.546157 31.5657 0 35.2249 0 39.0071C0 39.13 0 39.2665 0 39.3894C0.0136539 41.0961 0.136539 42.7619 0.368656 44.414C0.614427 46.1481 0.969429 47.8412 1.42001 49.4796H6.81331H13.0668H15.5518H22.1467H26.5569L25.4509 46.0798Z" fill="#CE1E12"/>
<path d="M42.8051 54.0664H28.1135H22.9659H17.6409H11.0051H9.20278H3.00389H2.99023V54.0801C3.64562 55.6366 4.39659 57.1385 5.24313 58.5995C5.40698 58.8726 5.57083 59.1457 5.73468 59.4188C6.5266 60.7022 7.3868 61.9311 8.31527 63.1053C9.53047 64.6482 10.8686 66.1092 12.3022 67.4609C12.5616 67.693 12.8211 67.9252 13.0805 68.1573C16.2619 70.9836 19.9075 73.3048 23.8808 74.9842C25.5192 75.6806 27.2123 76.2541 28.9464 76.7183C31.6362 77.4283 34.4353 77.8652 37.3162 77.9881L43.6243 58.5722L45.0853 54.0664H42.8051Z" fill="#2C7480"/>
<path d="M46.5054 35.7849C46.0821 34.8974 45.4677 34.0645 44.6621 33.3136C43.7882 32.4807 42.8598 31.8662 41.8903 31.4566C41.3305 31.2245 40.7571 31.0607 40.1699 30.9651C39.774 30.8968 39.378 30.8695 38.982 30.8695C37.5893 30.8695 36.3195 31.1835 35.1726 31.798C34.4489 32.1803 33.7799 32.6855 33.1518 33.3136C32.947 33.5184 32.7422 33.7368 32.5647 33.9553C31.3358 35.4436 30.7078 37.1776 30.7078 39.1574C30.7078 39.6217 30.7487 40.0859 30.8306 40.5365C30.9945 41.4377 31.3358 42.2842 31.841 43.0898C32.196 43.6496 32.6193 44.1821 33.1382 44.7009C33.9574 45.5202 34.8722 46.1346 35.8553 46.5442C36.8111 46.9402 37.8624 47.1313 38.9684 47.1313C41.0438 47.1313 42.928 46.3121 44.6621 44.6873C46.3825 43.0625 47.2563 41.2192 47.2563 39.1438C47.2563 37.9286 46.9969 36.809 46.5054 35.7849Z" fill="#82C51B"/>
<path d="M77.7457 34.7606C77.6228 33.5864 77.4453 32.4394 77.2132 31.3062C76.5714 28.1248 75.5337 25.0663 74.1684 22.2126C74.1274 22.1307 74.0864 22.0351 74.0455 21.9532C72.6528 19.0995 70.9187 16.437 68.8979 14.0203C67.792 12.6958 66.5904 11.4397 65.307 10.2654C65.2114 10.1835 65.1158 10.1016 65.0339 10.006C64.7881 9.78755 64.5287 9.55543 64.2693 9.33697C63.9143 9.03658 63.5592 8.7362 63.2042 8.44946L42.8735 23.2367L44.5393 24.4519L45.8364 25.394L46.8878 26.1586L52.1036 29.9544L60.296 35.9075L60.7875 36.2625L65.6483 39.7852L67.0137 40.782L75.602 47.0218L76.9538 48.0049C77.104 47.3768 77.2405 46.7351 77.3497 46.0934C77.773 43.7995 77.9915 41.4374 77.9915 39.0343C77.9778 37.587 77.8959 36.167 77.7457 34.7606Z" fill="#EB2D25"/>
</svg>
