<svg width="16" height="18" viewBox="0 0 16 18" fill="none" xmlns="http://www.w3.org/2000/svg">
<path fill-rule="evenodd" clip-rule="evenodd" d="M3 5.18799C3 2.42656 5.23858 0.187988 8 0.187988C10.7614 0.187988 13 2.42656 13 5.18799V7.18799H14C15.1046 7.18799 16 8.08342 16 9.18799V15.188C16 16.2926 15.1046 17.188 14 17.188H2C0.895431 17.188 0 16.2926 0 15.188V9.18799C0 8.08342 0.895431 7.18799 2 7.18799H3V5.18799ZM8 2.18799C6.34315 2.18799 5 3.53113 5 5.18799V7.18799H11V5.18799C11 3.53113 9.65685 2.18799 8 2.18799Z" fill="white"/>
</svg>
