<svg width="100%" height="100%" viewBox="0 0 176 57" fill="none" xmlns="http://www.w3.org/2000/svg">
<path d="M143.167 2.21289L137.87 6.0675L146.749 12.5333C146.923 11.7872 147.022 10.9914 147.022 10.1957C147.022 6.96276 145.505 4.07802 143.167 2.21289Z" fill="white"/>
<path d="M142.123 1.49211C140.581 0.547105 138.766 0 136.826 0C134.737 0 132.822 0.621715 131.206 1.69106L133.22 7.93302L142.123 1.49211Z" fill="white"/>
<path d="M130.211 2.48633C128.047 4.35146 126.68 7.11185 126.68 10.1955C126.68 11.1405 126.804 12.0607 127.053 12.9311H133.618L130.211 2.48633Z" fill="white"/>
<path d="M127.451 14.125C128.943 17.6563 132.375 20.1929 136.403 20.367L138.442 14.125H127.451Z" fill="white"/>
<path d="M137.672 20.3422C141.675 20.0189 145.033 17.358 146.375 13.7521L141.078 9.89746L137.672 20.3422Z" fill="white"/>
<path d="M139.014 10.2212C139.014 10.7683 138.791 11.2408 138.343 11.6635C137.895 12.0863 137.398 12.3101 136.851 12.3101C136.254 12.3101 135.757 12.0863 135.334 11.6635C134.911 11.2408 134.687 10.7683 134.687 10.2212C134.687 9.62433 134.911 9.12696 135.334 8.7042C135.757 8.28143 136.254 8.05762 136.851 8.05762C137.398 8.05762 137.895 8.28143 138.343 8.7042C138.791 9.12696 139.014 9.62433 139.014 10.2212Z" fill="white"/>
<path d="M27.977 31.6575C31.558 32.1549 34.393 33.4232 36.482 35.4873C38.5709 37.5265 39.6154 40.063 39.6154 43.0721C39.6154 46.9019 37.8746 49.9607 34.3682 52.2237C30.8617 54.4867 25.6145 55.6058 18.6513 55.6058H1.49211C0.497368 55.6058 0 55.2079 0 54.4121V54.1634C0 53.6661 0.422763 52.8952 1.24342 51.8755C2.08895 50.8559 2.48684 49.8115 2.48684 48.767V17.955C2.48684 16.9106 2.06408 15.8909 1.24342 14.8465C0.397895 13.8269 0 13.0559 0 12.5586V12.3099C0 11.5141 0.497368 11.1162 1.49211 11.1162H18.8503C24.2467 11.1162 28.3251 12.1607 31.0855 14.2496C33.8708 16.3386 35.2385 19.0492 35.2385 22.3816C35.2385 24.7192 34.592 26.7087 33.2739 28.3252C31.9559 29.9416 30.1903 31.0856 27.977 31.6575ZM13.7771 18.7757V26.659C13.7771 27.6537 14.1004 28.4495 14.7221 29.0463C15.3438 29.6432 16.1645 29.9167 17.1592 29.9167H20.2926C21.8842 29.9167 23.1525 29.3945 24.1224 28.3252C25.0922 27.2558 25.5647 25.8383 25.5647 24.0478C25.5647 21.3869 24.9182 19.2979 23.6499 17.7809C22.3816 16.2888 20.6657 15.5179 18.4772 15.5179H16.7364C14.747 15.5179 13.7771 16.5873 13.7771 18.7757ZM21.4614 51.2041C23.4261 51.2041 24.9679 50.6073 26.0621 49.4136C27.1563 48.2199 27.7283 46.6532 27.7283 44.6886C27.7283 42.1023 26.7087 39.7149 24.6943 37.5513C22.68 35.3878 19.8947 34.2936 16.3883 34.2936H13.7522V45.8823C13.7522 47.4241 14.175 48.6924 15.0454 49.712C15.8909 50.7067 17.0349 51.2041 18.4524 51.2041H21.4614Z" fill="white"/>
<path d="M68.1893 45.6831C68.637 45.2355 69.1592 45.0863 69.7312 45.2852C70.3031 45.4841 70.5518 45.9069 70.5021 46.5784C70.4275 48.6673 69.2089 50.806 66.8713 52.9695C64.5337 55.1331 61.4997 56.2273 57.7943 56.2273C53.2434 56.2273 49.538 54.7601 46.6533 51.8505C43.7685 48.9409 42.3262 45.1111 42.3262 40.3861C42.3262 35.8849 43.8431 32.1795 46.8771 29.2699C49.911 26.3603 53.517 24.918 57.7446 24.918C61.5495 24.918 64.4839 25.7884 66.5729 27.554C68.6618 29.2948 69.7063 31.2843 69.7063 33.4976C69.7063 35.2384 68.8856 36.5564 67.2692 37.377L54.8101 44.3899C56.526 47.1006 58.8885 48.4684 61.9474 48.4684C63.2405 48.4684 64.4591 48.2197 65.603 47.6974C66.7221 47.1503 67.5925 46.4789 68.1893 45.6831ZM56.6006 27.9768C55.3572 27.9768 54.3376 28.5985 53.5667 29.8668C52.7958 31.1102 52.3979 32.6769 52.3979 34.5669C52.3979 37.0786 52.7212 39.267 53.3429 41.1322L59.1621 37.6257C60.2563 36.8797 60.7785 35.8103 60.7785 34.4426C60.7785 33.0748 60.4304 31.6573 59.7341 30.1901C59.0626 28.698 58.0181 27.9768 56.6006 27.9768Z" fill="white"/>
<path d="M86.7659 56.1526C82.7621 56.1526 79.4546 55.4812 76.8682 54.1134C74.2819 52.7457 72.9888 51.0049 72.9888 48.8165C72.9888 47.4736 73.3867 46.4788 74.2073 45.8074C75.028 45.1359 76.0973 44.8126 77.4402 44.8126C78.8577 44.8126 79.9768 45.2603 80.8223 46.1555C81.6678 47.0508 82.2149 48.0455 82.5134 49.09C82.8118 50.1593 83.3092 51.1292 84.0055 52.0245C84.7267 52.9197 85.6219 53.3674 86.7659 53.3674C89.0289 53.3674 90.148 52.2234 90.148 49.9355C90.148 48.4434 89.576 47.2497 88.4321 46.3545C87.2881 45.4841 85.8955 44.8126 84.279 44.3401C82.6626 43.8925 81.0213 43.3703 79.4297 42.7734C77.8132 42.2015 76.4455 41.2067 75.3015 39.8389C74.1576 38.4712 73.5856 36.6558 73.5856 34.3928C73.5856 31.6075 74.8042 29.3196 77.291 27.5291C79.753 25.7634 82.9361 24.8682 86.8156 24.8682C90.6951 24.8682 93.8534 25.5894 96.2905 27.0566C98.7276 28.5238 99.9461 30.2895 99.9461 32.3784C99.9461 33.4726 99.5482 34.3679 98.7276 35.1139C97.9069 35.8351 96.9122 36.2082 95.7434 36.2082C94.3756 36.2082 93.2814 35.7605 92.4856 34.8901C91.6898 34.0197 91.1676 33.0499 90.894 31.9805C90.6205 30.9112 90.1977 29.9413 89.6506 29.0709C89.0786 28.2005 88.3326 27.7529 87.3627 27.7529C86.4426 27.7529 85.7214 28.1011 85.1992 28.8222C84.6769 29.5434 84.4282 30.3641 84.4282 31.334C84.4282 32.8758 84.9753 34.1192 86.0944 35.0891C87.1886 36.059 88.5315 36.7801 90.0982 37.2775C91.6649 37.7749 93.2317 38.322 94.7984 38.8939C96.3651 39.4908 97.708 40.4358 98.8022 41.7538C99.8964 43.0718 100.468 44.7878 100.468 46.9264C100.468 49.5874 99.2498 51.8007 96.8127 53.5415C94.3259 55.2822 90.9935 56.1526 86.7659 56.1526Z" fill="white"/>
<path d="M116.384 56.2027C113.201 56.2027 110.714 55.2079 108.899 53.1936C107.083 51.1793 106.163 48.3194 106.163 44.614V29.7676H103.776C103.353 29.7676 103.005 29.6432 102.731 29.3697C102.458 29.0961 102.333 28.7479 102.333 28.3252V26.9574C102.333 25.9876 102.806 25.5151 103.776 25.5151H104.97C106.884 25.5151 108.551 24.9431 109.918 23.7991C111.286 22.6552 112.181 21.1133 112.604 19.1985C112.803 18.1043 113.375 17.582 114.295 17.582H115.738C116.857 17.582 117.429 18.1291 117.429 19.1985V25.5151H123.87C124.292 25.5151 124.64 25.6394 124.914 25.913C125.188 26.1865 125.312 26.5347 125.312 26.9574V28.3252C125.312 28.7479 125.188 29.0961 124.914 29.3697C124.64 29.6432 124.292 29.7676 123.87 29.7676H117.429V44.7881C117.429 45.8326 117.702 46.6532 118.249 47.2501C118.796 47.8469 119.468 48.1702 120.264 48.1702C122.054 48.1702 123.447 47.3993 124.392 45.8574C124.69 45.4844 125.013 45.2606 125.387 45.2108C125.76 45.1611 126.083 45.2108 126.356 45.4347C126.63 45.6336 126.754 45.932 126.754 46.305C126.754 48.9411 125.834 51.2539 123.969 53.2185C122.129 55.208 119.592 56.2027 116.384 56.2027Z" fill="white"/>
<path d="M130.087 55.5805C129.092 55.5805 128.595 55.1826 128.595 54.3868V54.1381C128.595 53.6408 129.017 52.8699 129.838 51.8254C130.684 50.7809 131.081 49.7364 131.081 48.692V36.8049C131.081 35.7107 130.659 34.6662 129.838 33.6466C128.992 32.627 128.595 31.9306 128.595 31.5576V31.3089C128.595 30.8116 129.067 30.3391 130.037 29.8666L139.487 25.241C140.357 24.868 141.054 24.8183 141.551 25.1167C142.048 25.4151 142.297 25.8876 142.297 26.5591V48.7168C142.297 49.7613 142.77 50.8058 143.715 51.8503C144.66 52.8947 145.132 53.6656 145.132 54.163V54.4117C145.132 55.2075 144.61 55.6054 143.565 55.6054H130.087V55.5805Z" fill="white"/>
<path d="M173.681 45.6831C174.129 45.2355 174.651 45.0863 175.223 45.2852C175.795 45.4841 176.043 45.9069 175.994 46.5784C175.919 48.6673 174.701 50.806 172.363 52.9695C170.025 55.1331 166.991 56.2273 163.286 56.2273C158.735 56.2273 155.03 54.7601 152.145 51.8505C149.26 48.9409 147.818 45.1111 147.818 40.3861C147.818 35.8849 149.335 32.1795 152.369 29.2699C155.403 26.3603 159.009 24.918 163.236 24.918C167.041 24.918 169.976 25.7884 172.064 27.554C174.153 29.2948 175.198 31.2843 175.198 33.4976C175.198 35.2384 174.377 36.5564 172.761 37.377L160.302 44.3899C162.018 47.1006 164.38 48.4684 167.439 48.4684C168.732 48.4684 169.951 48.2197 171.095 47.6974C172.239 47.1503 173.084 46.4789 173.681 45.6831ZM162.092 27.9768C160.849 27.9768 159.829 28.5985 159.058 29.8668C158.287 31.1102 157.889 32.6769 157.889 34.5669C157.889 37.0786 158.213 39.267 158.834 41.1322L164.654 37.6257C165.748 36.8797 166.27 35.8103 166.27 34.4426C166.27 33.0748 165.922 31.6573 165.226 30.1901C164.579 28.698 163.51 27.9768 162.092 27.9768Z" fill="white"/>
</svg>
