<svg width="132" height="41" viewBox="0 0 132 41" fill="none" xmlns="http://www.w3.org/2000/svg">
<path d="M97.3079 2.40528L97.2892 2.33069C97.2519 2.38664 97.2146 2.42393 97.196 2.47988C97.2333 2.44258 97.2706 2.42393 97.3079 2.40528Z" fill="#CE1E12"/>
<path d="M108.849 10.0307L107.19 8.81882L106.835 8.55779L106.034 7.9798L105.847 7.84928L105.474 7.56961L105.157 8.53914L104.822 9.56461L103.927 12.3427L103.666 13.1444L102.883 15.5683C103.461 15.5123 104.039 15.4005 104.579 15.2327C105.083 15.0649 105.568 14.8598 106.034 14.5987C106.798 14.1699 107.488 13.6292 108.066 12.9766C108.7 12.2681 109.222 11.4291 109.558 10.5155L108.849 10.0307Z" fill="#A81385"/>
<path d="M105.866 0.9136C105.605 0.783085 105.344 0.652571 105.064 0.540701C104.188 0.186448 103.218 0 102.211 0C102.156 0 102.1 0 102.044 0C101.876 0 101.689 0.0186472 101.522 0.0372921C100.813 0.0932269 100.142 0.26103 99.4893 0.484769C99.2096 0.596638 98.93 0.708508 98.6503 0.857667C98.4079 0.988182 98.1655 1.11869 97.9232 1.2865C97.9045 1.30514 97.8859 1.30515 97.8859 1.32379L97.9045 1.36108L97.9977 1.6594L98.0723 1.90178L98.5011 3.22557L98.7249 3.91543L99.3402 5.79857L99.4334 6.09689L101.801 4.38156L106.239 1.15599C106.146 1.06276 106.015 0.988179 105.866 0.9136Z" fill="#273869"/>
<path d="M99.5266 9.21084L99.2283 8.29724L98.9859 7.55145L98.6689 6.56327L98.0723 4.71742L97.8299 3.99027L97.3451 2.48003L97.3265 2.40545C97.2892 2.42409 97.2519 2.44274 97.196 2.46139C97.2333 2.40545 97.2705 2.36816 97.2892 2.31222L97.1587 1.88339C96.8417 2.16307 96.5434 2.44274 96.2824 2.7597C95.6671 3.48685 95.1823 4.32588 94.8654 5.23948C94.8281 5.35135 94.7908 5.48186 94.7535 5.61238C94.5484 6.30224 94.4365 7.02939 94.4365 7.79383C94.4365 7.81247 94.4365 7.84977 94.4365 7.86841C94.4365 8.20402 94.4552 8.53963 94.5111 8.87524C94.567 9.22949 94.623 9.5651 94.7162 9.88206H95.7976H97.0468H97.5502H98.874H99.7503L99.5266 9.21084Z" fill="#CE1E12"/>
<path d="M102.995 10.8143H100.067H99.0419H97.9791H96.6553H96.3011H95.0705C95.201 11.1312 95.3502 11.4295 95.518 11.7092C95.5553 11.7652 95.5739 11.8211 95.6112 11.877C95.7604 12.1381 95.9468 12.3804 96.1333 12.6228C96.3756 12.9398 96.6367 13.2195 96.935 13.4991C96.9909 13.5551 97.0282 13.5924 97.0842 13.6483C97.7181 14.2076 98.4452 14.6738 99.247 15.0094C99.5826 15.1399 99.9182 15.2704 100.254 15.3636C100.794 15.5128 101.354 15.5874 101.932 15.6247L103.2 11.7465L103.498 10.8516H102.995V10.8143Z" fill="#2C7480"/>
<path d="M103.723 7.16009C103.629 6.9736 103.517 6.82441 103.35 6.67521C103.182 6.50737 102.995 6.39547 102.79 6.30223C102.678 6.24628 102.566 6.22763 102.454 6.20898C102.38 6.19033 102.305 6.19034 102.212 6.19034C101.932 6.19034 101.671 6.24629 101.447 6.37683C101.298 6.45143 101.168 6.56332 101.037 6.67521C101 6.71251 100.963 6.76846 100.925 6.80576C100.683 7.10415 100.552 7.45848 100.552 7.85011C100.552 7.94336 100.552 8.03661 100.571 8.12985C100.608 8.31634 100.664 8.48418 100.776 8.63337C100.851 8.74527 100.925 8.85717 101.037 8.95041C101.205 9.11826 101.391 9.23015 101.578 9.3234C101.764 9.39799 101.97 9.43529 102.193 9.43529C102.604 9.43529 102.977 9.26745 103.331 8.95041C103.667 8.63338 103.853 8.2604 103.853 7.85011C103.872 7.58902 103.835 7.36523 103.723 7.16009Z" fill="#82C51B"/>
<path d="M109.968 6.95488C109.949 6.7125 109.912 6.48876 109.856 6.26503C109.725 5.6311 109.52 5.01581 109.241 4.45647C109.241 4.43782 109.222 4.41918 109.222 4.40053C108.942 3.82254 108.588 3.30048 108.196 2.81572C107.973 2.55469 107.73 2.29366 107.488 2.06992C107.469 2.05128 107.451 2.03263 107.432 2.01398C107.376 1.97669 107.339 1.92076 107.283 1.88347C107.208 1.82754 107.134 1.7716 107.078 1.71567L102.995 4.66156L103.33 4.90394L103.591 5.09039L103.796 5.23956L104.84 6.004L106.481 7.19727L106.574 7.27185L107.544 7.98035L107.824 8.18545L109.539 9.43466L109.8 9.62111C109.837 9.4906 109.856 9.36008 109.874 9.24821C109.968 8.78209 110.005 8.31597 110.005 7.8312C110.024 7.51423 110.005 7.23456 109.968 6.95488Z" fill="#EB2D25"/>
<path d="M22.4485 22.877C22.1129 23.9397 21.7586 25.0025 21.4417 26.0653C20.9756 27.5755 20.9756 29.7756 22.635 30.0926C23.6045 30.279 24.5181 29.5892 25.208 28.9366C26.1775 28.023 27.0911 27.0907 27.9674 26.1212C27.781 25.8975 27.5759 25.6737 27.3708 25.4686C26.1029 24.2194 24.4622 23.3618 22.4485 22.877Z" fill="#82C51B"/>
<path d="M22.7655 21.9084C23.0452 21.7592 23.325 21.5914 23.5674 21.4049C23.4369 21.1065 23.325 20.7894 23.2317 20.4724C23.0825 20.9573 22.9147 21.4235 22.7655 21.9084Z" fill="#82C51B"/>
<path d="M23.5671 21.4041C24.0891 21.0312 24.5366 20.6024 24.9468 20.1176C25.935 18.9057 26.4197 17.4141 26.4197 15.6615C26.4197 14.4682 26.1773 13.3868 25.7112 12.3987C25.0027 15.1208 24.1078 17.787 23.2314 20.4719C23.3247 20.8075 23.4365 21.1058 23.5671 21.4041Z" fill="#82C51B"/>
<path d="M35.1271 20.7889C32.8524 22.9704 31.7151 25.7485 31.7151 29.1232C31.7151 29.552 31.7337 29.9809 31.771 30.3911C35.3136 26.0468 38.9493 21.7771 42.641 17.5447C39.751 17.6752 37.2526 18.7566 35.1271 20.7889Z" fill="#A81385"/>
<path d="M92.9634 38.7814C94.3618 37.2898 95.0517 35.5745 95.0517 33.5982C95.0517 33.3185 94.9584 33.0947 94.7533 32.9456C94.6415 32.8524 94.511 32.7964 94.3618 32.7778C93.5974 33.4117 92.9075 34.1202 92.3854 34.8101C90.8379 36.8237 89.4209 38.8933 88.0598 40.9815C90.0921 40.8324 91.7329 40.0866 92.9634 38.7814Z" fill="#A81385"/>
<path d="M102.379 33.4489C101.969 32.6472 101.41 31.8641 100.533 31.398C99.8061 31.0065 99.0603 30.8946 98.2959 30.9505V35.388C98.2959 36.1711 97.9789 36.9542 97.3636 37.7373C96.7297 38.5204 96.4314 39.0983 96.4314 39.4712V39.6577C96.4314 40.2543 96.8043 40.5526 97.5501 40.5526H103.871C103.889 38.0915 103.554 35.6863 102.379 33.4489Z" fill="#A81385"/>
<path d="M94.3619 32.7595C94.2501 32.7408 94.1568 32.7408 94.0263 32.7595C93.7467 32.8154 93.4856 32.9646 93.2805 33.2443C92.5534 34.4002 91.5279 34.9782 90.1855 34.9782C89.5888 34.9782 89.0854 34.7545 88.6752 34.2884C88.265 33.8409 88.06 33.2256 88.06 32.4425V27.5576C85.3005 30.3729 82.7089 33.3002 80.2104 36.2834C80.5461 37.2343 81.0308 38.0546 81.6461 38.7445C83.0072 40.2547 84.8717 41.0005 87.2582 41.0005C87.5379 41.0005 87.7989 40.9819 88.06 40.9633C89.4024 38.875 90.838 36.8054 92.3856 34.7918C92.9076 34.1019 93.5975 33.3934 94.3619 32.7595Z" fill="#EB2D25"/>
<path d="M107.73 37.7188C107.022 36.9357 106.668 36.1527 106.668 35.3696V24.3504V18.7383C106.668 18.2349 106.481 17.8806 106.108 17.6569C105.735 17.4332 105.213 17.4705 104.561 17.7501L97.4756 21.2181C96.7484 21.5537 96.3942 21.9266 96.3942 22.2995V22.4486V22.4859C96.3942 22.7656 96.7111 23.2877 97.3264 24.0521C97.9603 24.8165 98.2587 25.6183 98.2587 26.42V30.9507C99.0231 30.8761 99.7875 31.0067 100.496 31.3982C101.391 31.883 101.932 32.6661 102.342 33.4491C103.517 35.6865 103.852 38.0917 103.815 40.5342H107.581C108.364 40.5342 108.756 40.2359 108.756 39.6392V39.4528C108.793 39.0799 108.439 38.5019 107.73 37.7188Z" fill="#EB2D25"/>
<path d="M114.237 20.789C111.963 22.9705 110.825 25.7486 110.825 29.1233C110.825 29.1979 110.825 29.2725 110.825 29.3284C110.863 31.7895 111.422 33.9151 112.503 35.7236C112.82 36.2457 113.193 36.7491 113.603 37.2152C115.076 31.4166 116.643 25.6367 117.668 19.8195C117.743 19.3534 117.836 18.8686 117.873 18.3839C116.549 18.9246 115.337 19.7263 114.237 20.789Z" fill="#EB2D25"/>
<path d="M16.5943 7.30871C15.8112 7.23413 14.9908 7.19684 14.1332 7.19684H8.42781H1.119C1.04442 7.19684 0.969843 7.19684 0.895264 7.21548C6.52603 10.8326 8.42781 17.6566 7.75659 23.6416C7.10402 29.347 4.75476 34.8659 3.692 40.5153H4.04625H11.5602H13.984C14.0586 40.5153 14.1518 40.5153 14.2264 40.5153C14.0586 39.5644 14.1332 38.4271 14.3196 37.2338H13.8348C12.7721 37.2338 11.9144 36.8609 11.2805 36.1151C10.6466 35.3693 10.3109 34.4184 10.3109 33.2438V32.5166V24.5553H12.2873C14.4315 24.5553 16.2214 25.096 17.6198 26.196C18.8876 22.2433 20.23 18.2906 21.0131 14.2073C21.3674 12.3615 21.5911 10.4597 21.6284 8.53927C20.2487 7.90534 18.5706 7.49516 16.5943 7.30871ZM18.0672 20.0991C17.3401 20.9008 16.3892 21.2924 15.1959 21.2924H13.3874H12.8467C12.1009 21.2924 11.4856 21.0687 11.0195 20.6398C10.5533 20.211 10.3109 19.6144 10.3109 18.8499V12.9395C10.3109 11.3174 11.0381 10.497 12.511 10.497H13.8162C14.7298 10.497 15.5502 10.6834 16.2587 11.0377C16.7994 11.3174 17.2841 11.6903 17.6943 12.1937C18.6452 13.3124 19.13 14.8785 19.13 16.8922C19.1486 18.216 18.7944 19.2974 18.0672 20.0991Z" fill="#273869"/>
<path d="M27.9675 26.1214C27.0912 27.0723 26.1776 28.0232 25.208 28.9368C24.4995 29.5894 23.6046 30.2793 22.635 30.0928C20.9756 29.7758 20.9756 27.5757 21.4418 26.0655C21.7587 25.0027 22.0943 23.94 22.4486 22.8772C21.9825 22.7654 21.4977 22.6721 20.9756 22.5975C21.6282 22.4297 22.2062 22.1874 22.7656 21.9077C22.9147 21.4229 23.0825 20.9568 23.2317 20.472C24.108 17.7872 25.0029 15.1209 25.7115 12.3988C25.2267 11.392 24.4995 10.5156 23.53 9.73256C23.4554 9.67662 23.3808 9.60204 23.3063 9.54611C22.8028 9.17321 22.2621 8.8376 21.6469 8.55792C21.6096 10.4597 21.3858 12.3801 21.0316 14.226C20.2485 18.2906 18.9061 22.2433 17.6382 26.2147C17.9552 26.457 18.2348 26.7181 18.5145 27.0164C20.0248 28.6385 20.7892 30.4284 20.7892 32.3675C20.7892 33.8404 20.379 35.0151 19.54 35.91C18.7196 36.805 17.5636 37.2524 16.0907 37.2524H14.3194C14.1143 38.4457 14.0584 39.5831 14.2262 40.534C19.3349 40.5153 23.1757 39.6576 25.7674 37.9982C26.1403 37.7559 26.4759 37.5135 26.7929 37.2524C28.0794 36.1897 28.937 34.9218 29.3845 33.4675C29.6082 32.7404 29.7201 31.9759 29.7201 31.1369C29.7201 29.1978 29.1235 27.5384 27.9675 26.1214Z" fill="#A81385"/>
<path d="M51.5719 21.4603C51.1803 20.7705 50.621 20.1179 49.8938 19.5026C48.887 18.6636 47.6192 18.0856 46.0903 17.7873C45.2326 17.6195 44.3004 17.5262 43.2749 17.5262C43.0698 17.5262 42.8461 17.5262 42.641 17.5449C38.9493 21.7773 35.3135 26.0656 31.771 30.3912C31.8642 31.6032 32.1066 32.7218 32.4795 33.766C33.0202 35.2576 33.8406 36.5813 34.9593 37.7187C35.4627 38.2407 36.022 38.6882 36.6 39.0798C38.2967 37.0475 39.9748 34.9965 41.6901 32.9642C41.4663 32.7032 41.2799 32.4235 41.0748 32.1252L43.5732 30.7268C46.1835 27.6131 48.8497 24.5181 51.5719 21.4603ZM39.9934 29.6827C39.6019 28.5267 39.3781 27.2216 39.3222 25.7486C39.3035 25.4317 39.3035 25.0961 39.3035 24.7605C39.3035 23.3435 39.5832 22.1875 40.1799 21.2366C40.7578 20.3043 41.5223 19.8196 42.4545 19.8196C43.0325 19.8196 43.5359 19.9874 43.9461 20.3043C44.3004 20.584 44.5801 20.9569 44.8224 21.4603C45.3445 22.5604 45.6055 23.6231 45.6055 24.6486C45.6055 25.6741 45.1953 26.4758 44.3936 27.0352L39.9934 29.6827Z" fill="#273869"/>
<path d="M71.0185 39.8813C72.4541 38.0541 73.8712 36.2083 75.2882 34.3811C75.2882 34.2692 75.2882 34.176 75.2882 34.0641C75.2882 33.1878 75.1577 32.4234 74.9153 31.7335C72.0067 34.7726 69.1167 37.849 66.264 40.9254C68.1099 40.8136 69.6947 40.4593 71.0185 39.8813Z" fill="#82C51B"/>
<path d="M72.5474 39.0053C74.2814 37.7747 75.195 36.2272 75.2882 34.3627C73.8712 36.2085 72.4542 38.0357 71.0185 39.8629C71.5778 39.6205 72.0813 39.3409 72.5474 39.0053Z" fill="#82C51B"/>
<path d="M128.314 18.9992C128.072 18.8314 127.811 18.6822 127.531 18.5517C126.151 17.8805 124.436 17.5262 122.385 17.5262C120.763 17.5262 119.271 17.8059 117.892 18.3839C117.836 18.8687 117.761 19.3348 117.687 19.8196C116.661 25.6368 115.114 31.4353 113.622 37.2153C113.771 37.3831 113.92 37.5509 114.088 37.7187C116.251 39.9188 119.029 41.0002 122.441 41.0002C123.895 41.0002 125.2 40.7765 126.375 40.329C126.58 38.5577 126.823 36.7864 127.046 34.9965C126.562 35.1084 126.058 35.1643 125.536 35.1643C123.243 35.1643 121.471 34.1389 120.185 32.1066L127.885 27.7809C127.96 27.0538 128.016 26.308 128.072 25.5809C128.202 23.8469 128.296 22.1129 128.314 20.3789C128.314 19.9314 128.314 19.4653 128.314 18.9992ZM123.448 27.0538L119.085 29.6827C118.619 28.2657 118.376 26.625 118.376 24.7605C118.376 23.3435 118.656 22.1875 119.253 21.2366C119.831 20.3043 120.595 19.8196 121.527 19.8196C122.59 19.8196 123.373 20.3603 123.895 21.4603C124.417 22.5604 124.678 23.6231 124.678 24.6486C124.678 25.6741 124.268 26.4944 123.448 27.0538Z" fill="#82C51B"/>
<path d="M93.6721 18.3093C93.467 18.1042 93.206 18.011 92.889 18.011H88.4329C87.8549 18.5889 87.2769 19.1483 86.6989 19.7263C84.3124 22.0942 81.9445 24.4807 79.5952 26.8859V28.6572V32.3303C79.5952 32.9455 79.6325 33.5049 79.6884 34.0642C79.7817 34.8846 79.9495 35.6304 80.1919 36.3016C82.6903 33.3184 85.2819 30.3912 88.0414 27.5758V25.8978V21.1992H92.8704C93.1874 21.1992 93.4484 21.106 93.6535 20.9009C93.8586 20.6958 93.9518 20.4348 93.9518 20.1178V19.0924C93.9704 18.7754 93.8772 18.5144 93.6721 18.3093Z" fill="#82C51B"/>
<path d="M69.3218 25.0398C69.5083 25.2449 69.7134 25.4127 69.9371 25.5432C70.4405 25.8601 71.0558 26.0279 71.7643 26.0279C72.6406 26.0279 73.3864 25.7483 74.0017 25.2076C74.617 24.6669 74.9153 23.977 74.9153 23.1566C74.9153 22.4108 74.6916 21.7023 74.2814 21.0498C73.8152 20.3599 73.1254 19.726 72.1745 19.1666C71.5219 18.7751 70.7948 18.4581 70.0117 18.1971C69.1354 19.1293 68.2777 20.0802 67.42 21.0311C67.737 21.5905 67.9794 22.1871 68.1472 22.8397C68.3336 23.66 68.7438 24.3872 69.3218 25.0398Z" fill="#2C7480"/>
<path d="M74.0574 30.1857C73.2371 29.1975 72.2302 28.489 71.0556 28.0415C70.1793 27.7059 69.2843 27.4076 68.408 27.1093C68.1097 27.0161 67.83 26.9228 67.5317 26.8296C66.3571 26.4567 65.3503 25.916 64.5299 25.1888C64.3807 25.0583 64.2689 24.9278 64.1383 24.7973C62.4417 26.7737 60.7636 28.7687 59.1229 30.801C59.272 30.8569 59.4025 30.9128 59.5517 30.9688C60.7636 31.4162 61.9755 31.7891 63.1875 32.1434C63.2434 32.162 63.2807 32.1807 63.318 32.1807C64.4739 32.5163 65.4808 33.0011 66.3011 33.635C67.1588 34.2876 67.5877 35.1825 67.5877 36.3199C67.5877 38.0352 66.7486 38.8929 65.0519 38.8929C64.2129 38.8929 63.5231 38.5573 62.9824 37.886C62.4417 37.2148 62.0688 36.469 61.8637 35.6859C61.7331 35.1825 61.5094 34.6978 61.2111 34.2503C61.0433 33.9892 60.8382 33.7282 60.5958 33.4858C59.9619 32.8146 59.1229 32.479 58.0601 32.479C57.9482 32.479 57.8364 32.479 57.7431 32.4976C56.755 33.7096 55.7668 34.9401 54.7972 36.1707C54.9837 37.1589 55.5617 38.0352 56.5499 38.7623C56.8668 39.0047 57.2397 39.2285 57.6499 39.4522C59.589 40.4777 62.0688 40.9811 65.0706 40.9811C65.4808 40.9811 65.891 40.9624 66.2825 40.9438C69.1352 37.8487 72.0065 34.791 74.9337 31.7519C74.71 31.1552 74.4303 30.6332 74.0574 30.1857Z" fill="#2C7480"/>
<path d="M88.2279 18.0109H88.0601V13.2751C88.0601 12.4547 87.6312 12.0632 86.7922 12.0632H85.7108C85.021 12.0632 84.5921 12.4734 84.443 13.2751C84.126 14.7108 83.4548 15.8668 82.4293 16.7244C81.4038 17.5821 80.1546 18.0109 78.719 18.0109H77.824C77.0969 18.0109 76.7426 18.3652 76.7426 19.0923V20.1178C76.7426 20.4348 76.8358 20.6958 77.0409 20.9009C77.246 21.106 77.5071 21.1992 77.824 21.1992H79.6139V26.8859C81.9632 24.4807 84.3311 22.0942 86.7176 19.7263C87.2024 19.1483 87.7058 18.5703 88.2279 18.0109Z" fill="#2C7480"/>
<path d="M88.4519 18.011H88.2281C87.7246 18.5704 87.2211 19.1486 86.7175 19.7267C87.2957 19.1486 87.8738 18.5704 88.4519 18.011Z" fill="#2C7480"/>
<path d="M131.372 32.8151C130.943 32.666 130.57 32.7778 130.216 33.1134C129.769 33.7101 129.135 34.1949 128.277 34.5864C128.184 34.6237 128.091 34.661 127.997 34.7169C127.681 34.8474 127.364 34.9406 127.047 35.0152C126.823 36.7865 126.58 38.5578 126.375 40.3477C126.841 40.1612 127.289 39.9561 127.718 39.7137C128.259 39.3968 128.781 39.0239 129.247 38.5764C130.999 36.9543 131.913 35.3508 131.969 33.7847C131.987 33.2813 131.782 32.9456 131.372 32.8151Z" fill="#2C7480"/>
<path d="M129.004 19.5023C128.78 19.3158 128.557 19.148 128.314 18.9988C128.314 19.465 128.314 19.9311 128.314 20.3972C128.296 22.1312 128.202 23.8652 128.072 25.5991C128.016 26.3263 127.941 27.0721 127.885 27.7992L128.128 27.6687L129.526 26.8856C130.738 26.2517 131.353 25.2822 131.353 23.977C131.335 22.299 130.552 20.826 129.004 19.5023Z" fill="#2C7480"/>
<path d="M56.4381 28.7502C56.6991 29.0485 56.9602 29.3281 57.2585 29.5892C59.2908 27.4823 61.3231 25.3568 63.374 23.2685C63.3181 22.9889 63.2808 22.6906 63.2808 22.3736C63.2808 21.6464 63.4672 21.0312 63.8588 20.4904C64.2503 19.9497 64.791 19.6887 65.4809 19.6887C65.8911 19.6887 66.2453 19.8006 66.5623 20.0057C67.2708 19.2972 67.9793 18.57 68.7065 17.8615C67.9607 17.7124 67.1589 17.6005 66.3199 17.5632C62.5723 20.5277 58.9365 23.5855 55.4313 26.7365C55.6364 27.5196 55.972 28.1908 56.4381 28.7502Z" fill="#CE1E12"/>
<path d="M0.894957 7.21579C0.298319 7.27172 0 7.57004 0 8.0921V8.27855C0 8.65144 0.316964 9.22944 0.932246 9.99388C1.56617 10.7583 1.86449 11.5414 1.86449 12.3245V35.4255C1.86449 36.2086 1.54753 36.9917 0.932246 37.7562C0.298319 38.5206 0 39.0986 0 39.4715V39.6579C0 40.2546 0.372898 40.5529 1.11869 40.5529H3.69169C4.73581 34.9035 7.10371 29.3846 7.75629 23.6792C8.4275 17.6569 6.52572 10.8515 0.894957 7.21579Z" fill="#CE1E12"/>
<path d="M55.1517 24.6672C55.1517 25.4317 55.245 26.1216 55.4128 26.7368C58.918 23.5858 62.5538 20.5281 66.3014 17.5635C65.8912 17.5449 65.481 17.5262 65.0522 17.5262C62.1436 17.5262 59.757 18.1975 57.9112 19.5213C57.8552 19.5585 57.818 19.5958 57.762 19.6331C57.0908 20.4162 56.4196 21.1806 55.7484 21.9637C55.3568 22.7841 55.1517 23.6791 55.1517 24.6672Z" fill="#CE1E12"/>
<path d="M50.4159 26.8673C51.6278 26.2334 52.2431 25.2639 52.2431 23.9587C52.2431 23.0824 52.0193 22.2434 51.5718 21.4603C48.8497 24.5181 46.1835 27.6131 43.5732 30.7268L50.4159 26.8673Z" fill="#CE1E12"/>
<path d="M55.767 21.9644C56.4383 21.1812 57.1097 20.3979 57.7811 19.6333C56.8673 20.3233 56.1959 21.0879 55.767 21.9644Z" fill="#CE1E12"/>
<path d="M52.2616 32.8151C51.8327 32.666 51.4598 32.7778 51.1056 33.1134C50.6581 33.7101 50.0242 34.1949 49.1665 34.5864C48.3461 34.9593 47.4885 35.1457 46.5749 35.1644C46.5189 35.1644 46.463 35.1644 46.4257 35.1644C45.9037 35.1644 45.4003 35.1085 44.9341 34.9966C43.6663 34.6983 42.5849 34.0271 41.6899 32.9456C39.9932 34.9779 38.2965 37.0102 36.5999 39.0612C37.6626 39.7883 38.8186 40.2917 40.1051 40.6087C40.4034 40.6833 40.7017 40.7392 41.0187 40.7951C41.7459 40.9257 42.5289 40.9816 43.3307 40.9816C44.4307 40.9816 45.4562 40.8511 46.4071 40.5901C47.8427 40.1985 49.0919 39.5087 50.1361 38.5391C51.7395 37.0475 52.6345 35.5932 52.8209 34.1389C52.8396 34.0084 52.8582 33.8779 52.8582 33.7474C52.8769 33.2813 52.6904 32.9456 52.2616 32.8151Z" fill="#CE1E12"/>
<path d="M64.1385 24.7977C63.7656 24.3502 63.5045 23.8468 63.374 23.2688C61.3231 25.3757 59.2908 27.4826 57.2585 29.5895C57.8178 30.0929 58.4331 30.4844 59.123 30.7827C60.7637 28.7691 62.4418 26.7554 64.1385 24.7977Z" fill="#CE1E12"/>
<path d="M67.1964 20.6776C67.271 20.7895 67.3456 20.92 67.4202 21.0505C68.2781 20.0994 69.1359 19.1483 70.0124 18.2159C69.6022 18.0853 69.1732 17.9734 68.7256 17.8802C68.017 18.5889 67.2897 19.2975 66.581 20.0248C66.8048 20.174 67.0099 20.3978 67.1964 20.6776Z" fill="#CE1E12"/>
<path d="M54.7229 35.4633C54.7229 35.6871 54.7415 35.9295 54.7788 36.1347C55.7486 34.9038 56.737 33.673 57.7254 32.4608C56.8676 32.5167 56.1775 32.7592 55.6367 33.2068C55.0399 33.7103 54.7229 34.4563 54.7229 35.4633Z" fill="#CE1E12"/>
</svg>
